/* XPM */
static char *aff13b44163a49a1f1acd3b0b213e832YWxXub0Uw7R4hBIt[] = {
/* columns rows colors chars-per-pixel */
"64 64 184 2 ",
"   c None",
".  c #353401",
"X  c #3A2C14",
"o  c #170625",
"O  c #1C1030",
"+  c #76001B",
"@  c #6F0A0E",
"#  c #493316",
"$  c #52310B",
"%  c #67251F",
"&  c #77271B",
"*  c #6D3418",
"=  c #650D2A",
"-  c #613134",
";  c #722238",
":  c #500A21",
">  c #5C4B0E",
",  c #505401",
"<  c #4C4113",
"1  c #5A471C",
"2  c #4C4E01",
"3  c #744F26",
"4  c #6A5B21",
"5  c #766D25",
"6  c #686F0A",
"7  c #76334B",
"8  c #91001E",
"9  c #920012",
"0  c #811910",
"q  c #81020E",
"w  c #A5030E",
"e  c #A51E0F",
"r  c #A80011",
"t  c #B5180F",
"y  c #95331B",
"u  c #AE3218",
"i  c #A43E0E",
"p  c #A20125",
"a  c #A91A2B",
"s  c #983B25",
"d  c #82293A",
"f  c #803E3A",
"g  c #892920",
"h  c #A53828",
"j  c #A7303C",
"k  c #C00F0E",
"l  c #DA130E",
"z  c #C9001A",
"x  c #E9160E",
"c  c #FF0713",
"v  c #D0271B",
"b  c #FF3C0E",
"n  c #F72E1A",
"m  c #D3042B",
"M  c #CA042A",
"N  c #FC0E3D",
"B  c #EF1339",
"V  c #F11339",
"C  c #D03A30",
"Z  c #F42632",
"A  c #FF3235",
"S  c #BF461E",
"D  c #906916",
"F  c #AD6715",
"G  c #91513A",
"H  c #8F563C",
"J  c #A04828",
"K  c #AD422E",
"L  c #BA5125",
"P  c #BA5338",
"I  c #B95E39",
"U  c #AE4B27",
"Y  c #81742D",
"T  c #84612C",
"R  c #A76A39",
"E  c #B76533",
"W  c #BD6A30",
"Q  c #994A0E",
"!  c #CF4F0E",
"~  c #D2470E",
"^  c #CE500E",
"/  c #E6590E",
"(  c #D76E1B",
")  c #F1640E",
"_  c #EA7A0E",
"`  c #FF7F0E",
"'  c #DB452E",
"]  c #FF452E",
"[  c #FA4D38",
"{  c #FF5237",
"}  c #FF5A39",
"|  c #C76429",
" . c #CF732D",
".. c #D6752C",
"X. c #FF6D2B",
"o. c #FF7135",
"O. c #B51D48",
"+. c #AB3662",
"@. c #D82046",
"#. c #FF2A51",
"$. c #FF2B59",
"%. c #80464C",
"&. c #A34653",
"*. c #9B644B",
"=. c #A37347",
"-. c #B6734C",
";. c #A67059",
":. c #B65864",
">. c #A57A75",
",. c #C57F5D",
"<. c #D27750",
"1. c #FF6444",
"2. c #F4654A",
"3. c #FF7F44",
"4. c #FF7653",
"5. c #E66953",
"6. c #D34360",
"7. c #CF5F76",
"8. c #E14065",
"9. c #FF426C",
"0. c #FF5E77",
"q. c #D87A7E",
"w. c #E5726B",
"e. c #E4515A",
"r. c #959116",
"t. c #948425",
"y. c #AF9F36",
"u. c #B09736",
"i. c #AF8513",
"p. c #C98B10",
"a. c #FF970E",
"s. c #EE9928",
"d. c #F09A2B",
"f. c #FF9F21",
"g. c #EB8B2F",
"h. c #E7A235",
"j. c #F3A83F",
"k. c #DFA80F",
"l. c #FFC237",
"z. c #B7A440",
"x. c #C38D5C",
"c. c #D88655",
"v. c #E29046",
"b. c #C8B845",
"n. c #C2A45F",
"m. c #F3A444",
"M. c #FCB844",
"N. c #F3B55D",
"B. c #D19469",
"V. c #CF9474",
"C. c #FF8F6A",
"Z. c #FBAC74",
"A. c #D3A365",
"S. c #CFD152",
"D. c #CED14C",
"F. c #FFDF59",
"G. c #F5CA5C",
"H. c #FFE05B",
"J. c #E7FE51",
"K. c #E1D369",
"L. c #EFCE73",
"P. c #F9C17B",
"I. c #FFFE62",
"U. c #FAE878",
"Y. c #F5F77A",
"T. c #CDD27F",
"R. c #BCCB1B",
"E. c #FF7592",
"W. c #FF7D8F",
"Q. c #DA4987",
"!. c #BAAE89",
"~. c #E5B88F",
"^. c #F6AF8C",
"/. c #E7A2A3",
"(. c #FF98AD",
"). c #FECC92",
"_. c #CED0A0",
"`. c #DED8AC",
"'. c #EFD1A5",
"]. c #FDCEB7",
"[. c #FFF9BE",
"{. c #FFE18F",
"}. c #F6FED2",
"|. c #FFFEE8",
/* pixels */
"                                                                          o o                                                   ",
"                                              o o                             o                             o o o o             ",
"        o o     o     o                     o , . o   o o                   o o o o                     O o E  ...E o o         ",
"      o D $ o o $ o o k.o                     o 2 . o 6 , o             o o } Z o A o o               o E ....v.v.v...E o       ",
"  o o D o o $ D $ i.k.o                 o o o o . o , , o             o 6.} f.@.o o.} A o           o E ....v.v.N.N.v...E O     ",
"o $ o k.o w w o D o w k o             o p m B p = 2 5 o o           o 7.@.Z } G.U.f.o.} A o       o E ..E ....v.v.v.v.E U E o   ",
"  o D o a w k x x k x x b o         o p B #.M $.M = . r.D.o         o 7.6.6.B @.V A } A } A       o J E ..E .... ...E J U J o   ",
"    o a w k x b X.b b X.Z.k o       o m #.B W.B W.M = o . 6 o     o B @.6.6.@.B Z Z A o.[ [ o     o % J E E J E v.J.J.J.% % o   ",
"    o a r k l x b X.m.).X.x o     o m B B 0.B |.B #.p o . , o     o A V @.Z Z Z Z A } [ } A o       o % J % ..v.J.S.n.S.J.o     ",
"    o j r k l x x b b X.b x o     o B B #.B W.B W.p M = , o       o } A Z A } } o.g.[ o.[ A o         o % I I J.S.=.Y.=.S.J.o   ",
"    o j r k l l x x b b x k o     o m #.B 0.B 0.p m p ; o           o } f.M.U.M.f.} [ } A o             o J I J.n.K.|.K.n.J.o   ",
"      o a r k l l x x x l o       o B m #.B #.B #.p = 7 o           o f.U.U.f.o.} [ o.[ Z o             o % J J.S.=.Y.=.S.J.o   ",
"      o j a r t l l l l k o       o m B m #.p $.p = 7 o               o G.f.o.} [ e.A V o                 o % J J.S.n.S.J.o     ",
"        o o j a k k k o o           o p B p B p = o o                   o o } A e.A o o                     o % % J.J.J.o       ",
"            o o o o o                 o o o o o o                         O o o o o O                       O o o o o o O       ",
"                                                                                                                                ",
"                                                    o -.o o           o o o o                                                   ",
"      o o o o     o o o o                     o o o s h ~.-.o       o ] ] n ] o o                                               ",
"    o u S C u o 0 u u S u o                 o V.~.}.'.[.| h '.o   o ] n 2.] 1.n n o                   o o o o o o o o o         ",
"  o !  .( ~...S u 0 u u ;.u o             o -.h h '.h h '.:.~.o o d n ] n 2.] 1.4.1.o                 o >.-.*.H x.{.x.o         ",
"  o ..S o o u S ;.u 0 o u ! o           o -.B.~.'.B.[.<.h }.f -.o &.] n 1.] 2.n ] ] 1.o                 o e e e e e o           ",
"o ;...S o   0 & S S o   o ( u o       o -.h h P K h B.[.h '.h o o :.n 1.n 1.].q.4.C.] 1.o             o ~ ~ ~ / / ~ ~ o         ",
"o S h.o   o ~ S u S o   o h.;.o     o P U <.Z.<.<.K h B.'.}.s o o V.&.1.] 4.] d q.] 4.] ] o         o ~ / / / / 3.^.3.~ o       ",
"o ..h.o   o ( h.S 0     o h...o   o P q 9 C C Z.c.<.K '.h ^.o   o = q.] 4.] 4.] &.q./.4.1.o         o / ) ) ) ) 3.v.|.~ o       ",
"o S | o   0 u S h.S o   o h.S o o P q v C C 5.w Z.-.P ~.s V.o   o = d W.2.[ C.[ n :.w.].] ] o     o / ) ` ` ) ) ) 3.^.v.~ o     ",
"o ~ ~.S o S ( u S ( S o S ( S o o r v w w.2.v 5.9 Z.h B.-.o       o = d q.o.[ C.] n :.w./.1.o     o ) ` a.` ` ` ) ) 3.) ~ o     ",
"o h ~ @ S ( S o 0 ~.( S 0 S u o o v 5.[ ' ^.5.C r <.h -.o           o d &.q.] ^.[ 4.n :.w.q.o     o a.` a.a.a.` ` ) ) ) ~ O     ",
"  o ^ u ;.S o     o S S u V.o   o t ' 5.^.r v { C P -.o               o d &./.].] ^.[ d :.w.o       o a.a.a.a.` ` ) ) ~ o       ",
"  o 0 u u 0 S o o ! & u u 0 o   o ' 5.w w.' w.w r P o                   o d &.:.].]./.o o w.o       o ) a.a.` ` ` ) ) ~ o       ",
"    o ;.S ( ( h.h.| ^.u 0 o       o w ' t C C q P o                       o d &.:.&.:.o   o o         o ) a.` ` ) ) ~ o         ",
"      o o u S ( ( ~ K o o           o r ' r q I o                           o o %.:.&.o                 o o o o o o o           ",
"        O o o o o o o O               o o o o o                                 o o o o                     L p.F               ",
"                                                                                                    o o o o                     ",
"                          o o               o o o o o o                 o o o o                   o *.# * * o                   ",
"                      o o 9.!.o         o o l.F.F.H.F.l.o o           o & i & & o                   o *.o o Q o                 ",
"                  o o E.W.N !.o       o l.H.s._ l.l.s._ H.l.o       o J L g...s & o                   o     o F o               ",
"              o o E.E.9.9.N !.o     o F.s._ l.H.s._ H.H.s._ l.o   o & L  .L L  .L o                         o p.o               ",
"          o o E.E.9.9.E.9.N _.o     o H.l.F.s._ I.[.[.[.I.F.F.o   o s | g.| j.| | y o                         o p.o             ",
"  o o o o E.E.9.9.9.9.; $.N _.o     o F.s._ H.F._ I.I.[.s._ F.o   o L  .j.g.G.m.g. .o                         o p.o             ",
"o r._.N E.9.9.9.9.E.9.9.N _.> o   o i M.l.H.s._ l.I.H.I.F.F.d.o   o y W  .L g.m.| L s o                   o o o F o o o         ",
"o > > _.N 9.9.(.9.= 9.$.N _.5 o o _ ! d.d.d.l.l.l.H.l.H.d.d.M.o   o & L L |  .g. .| & o                 o p 8.+ y O.(.8.o       ",
"o > r._.N $.$.: 9.$.$.V _.> o   o F._ ^ d.M.d.d.l.H.d.d.j.M.o       o & y J L | | & P.x.o             o p 8 O.8.(.|.8.O.8.o     ",
"o r.R.> }.N #.$.$.N N _.5 o     o l.s.s._ ! M.M._ H.s.M.Q o           o o o y J L y ,.P.x.o o         o p p + + + + 8 8 8.o     ",
"o 5 > i.> }.N V N _._.> o       o d.l.F.s.s._ ! I.! _ ! ! o                 o o o o o ,.Z.{.).o       o O.p 8 + + + + 8 O.o     ",
"  o o 5 5 < }._._.> 5 o         o ! d.d.j.H.H.I.F.l.l.d.d.o                           o {.x.o         o +.O.p p 8 + + 8 O.o     ",
"      o o 5 < 5 > o o             o ^ d.d.d.s.l.d.d.d.d.o                             o x.Z.o           o Q.O.p 8 + 8 @.o       ",
"          o o o o                   o o ^ d.d.l.l.! o o                                 o o               o +.O.+ 8 p o         ",
"                                        o o o o o o                                                         o o o o o           ",
"                                                                          o o o o                               o o o o o       ",
"                  < < < o                                             o o G R G - o                         o o 4 4 4 4 4 o     ",
"              # < t.t.D < o                                         o G R R L.=.H o                     o o 4 Y Y u.Y Y 4 1 o   ",
"          X < t.y.b.y.t.D Y o                                     o G -.x.L.- - x.o                   o 4 Y Y u.u.Y 4 4 1 1 o   ",
"        X t.z.b.K.K.b.y.t.Y >           o o o o o o o           o G R R - - %.- o                   o 4 Y u.T.u.Y 4 4 4 1 1 # o ",
"      X t.z.K.y K y K.b.y.t.<         o C.4.] { { ] C.o         o G R B.W m.- W m.o               o 4 Y u._.u.Y Y 4 4 1 1 # # o ",
"    X t.z.K.s U c.S K.b.y.t.o       o C.] { 4.4.C.).4.{ o       O H x.R - - o - o     o o o       o 4 4 Y u.Y 4 4 4 4 1 1 # # o ",
"  X t.y.b.K.@ y U y S.b.t.<       o C.] 4.C.] { ^.4.[ 4.{ o     o ; R L.x.m.- m.o   o - - %.O   o 4 1 1 > 4 4 4 4 1 1 1 # 1 o   ",
"  X t.y.b.K.@ @ y K.b.y.t.o     o { 4.C.).C.Z.).] { 4.{ 4.} o   o H R x.W 3 E o o o - f G ; %.o o 1 z |.@ 1 4 1 1 1 1 1 3 3 o   ",
"  o t.y.b.D.K.Y.K.b.y.t.#       o o n ] { { ] 4.C.] 4.{ 4.] C.o o G x.R L.; %.%.- 3 =.G ; G %.o o # ].c 9 @ 1 1 # 1 3 3 T o     ",
"  o X t.y.y.b.b.b.y.y.t.o           o o n ] 4.{ ] 4.C.] C.C.n o   o G x.R `.G R G R G -.H ; %.o   o c z z 9 # # 1 3 T T o       ",
"  o o X t.t.y.y.u.t.t.X                 o o n ] 4.C.).] ).n o       o R R x.R `.R L.G R G %.o       o z 9 @ # 1 3 T o o         ",
"  o o o X X t.t.t.X X o                     o o n ] [ C.n o           o f -.G x.G x.R G - o           o # 1 3 3 o o             ",
"    o o o o X X X o o                           o o n ] o               o f ; R f R G o o               o o o o                 ",
"      o o o o o o o                                 o o                   O O o o o o                                           ",
"        o o o o o                                                                                                               "
};
