/* XPM */
static char *fc75d3afcceb4e818fe46c95aa17c0a4nOmwXA1oKKraJNlJ[] = {
/* columns rows colors chars-per-pixel */
"64 64 12 1 ",
"  c #0F1A1B",
". c #141412",
"X c #281818",
"o c #162527",
"O c #1D2E30",
"+ c #332520",
"@ c #243A3C",
"# c #523D2A",
"$ c #6E4B2C",
"% c #2A4345",
"& c #3B535E",
"* c #5C8EA5",
/* pixels */
"oOOOOOOOoOOOOOOOoOOOOOOOoOOOOOOO ooooooo @@@@@@@o@@@@@@@O@@@@@@@",
"o@@@@@@@oOOOOOOOo@@@@@@@oOOOOOOO OOOOOOO @@@@@@@o@@@@@@@o@@@@@@@",
"oooooooooooooooooooooooooooooo           OOOOOoooooooooooOOOOOOO",
"o@@@@@@@oOOOOOOOo@@@@@@@O@@@@@@@ OOOOOOO @@@@@@@o@@@@@@@o@@@@@@@",
"o@@@@@@@o@@@@@@@o@@@@@@@O@@@@@@@ OOOOOOO @@@@@@@o@@@@@@@o@@@@@@@",
"o@@@@@@@O@@@@@@@O@@@@@@@O@@@@@@@oOOOOOOO @@@@@@@o@@@@@@@ @@@@@@@",
"o@@@@@@@O@@@@@@@O@@@@@@@O@@@@@@@oOOOOOOO @@@@@@@oOOOOOOO OOOOOOO",
"o@@@@@@@O@@@@@@@O@@@@@@@O@@@@@@@oOOOOOOO @@@@@@@oOOOOOOO OOOOOOO",
"o@@@@@@@O@@@@@@@O@@@@@@@O@@@@@@@oOOOOOOO @@@@@@@oOOOOOOO OOOOOOO",
"o@@@@@@@O@@@@@@@O@@@@@@@O@@@@@@@oOOOOOOO @@@@@@@oooooo   ooooooo",
"oOOOOOOOOOOOOOOOOOOOOOOOOOOOOOOOoooooo   OOOOOOOoooooo          ",
"o@@@@@@@O@@@@@@@O@@@@@@@O@@@@@@@o@OOOOOO @@@@@@@o@OOOOOO        ",
"o@@@@@@@O@@@@@@@O@@@@@@@O@@@@@@@o@OOOOOO @@@@@@@o@OOOOOO        ",
"o@@@@@@@O@@@@@@@O@@@@@@@O@@@@@@@o@OOOOOO @@@@@@@o@OOOOOO        ",
"o@@@@@@@O@@@@@@@O@@@@@@@O@@@@@@@o@OOOOOO @@@@@@@o@OOOOOO        ",
"o@@@@@@@O@@@@@@@O@@@@@@@O@@@@@@@o@OOOOOO @@@@@@@o@OOOOOO        ",
"o@@@@@@@O@@@@@@@O@@@@@@@O@@@@@@@ @OOOOOO @@@@@@@ @OOOOOO        ",
"o@@@@@@@O@@@@@@@O@@@@@@@O@@@@@@@ @OOOOOO @@@@@@@ @OOOOOO        ",
"ooOOOOOOOOOOOOOOOOOOOOOOOOOOOOOo ooooo   OOOOOOo ooooo          ",
"o@@@@@@@O@@@@@@@O@@@@@@@O@@@@@@@ OOOOOOO @@@@@@@ OOOOOOO        ",
"o@@@@@@@O@@@@@@@O@@@@@@@O@@@@@@@oOOOOOOO @@@@@@@oOOOOOOO        ",
"o@@@@@@@O@@@@@@@O@@@@@@@O@@@@@@@oOOOOOOO @@@@@@@oOOOOOOO        ",
"o@@@@@@@O@@@@@@@O@@@@@@@O@@@@@@@oOOOOOOO @@@@@@@oOOOOOOO        ",
"o@@@@@@@O@@@@@@@O@@@@@@@O@@@@@@@oOOOOOOO @@@@@@@oOOOOOOO        ",
"o@@@@@@@O@@@@@@@O@@@@@@@O@@@@@@@oOOOOOOO @@@@@@@oOOOOOOO        ",
"o@@@@@@@O@@@@@@@O@@@@@@@O@@@@@@@oOOOOOOO @@@@@@@oOOOOOOO        ",
"oOOOOOOOOOOOOOOOOOOOOOOOOOOOOOOOoooooo   OOOOoo                 ",
"o@@@@@@@O@@@@@@@O@@@@@@@O@@@@@@@o@OOOOOO @@@@@@@ ooooooo ooo o o",
"o@@@@@@@O@@@@@@@O@@@@@@@O@@@@@@@o@OOOOOO @@@@@@@ ooooooo ooo o o",
"o@@@@@@@O@@@@@@@O@@@@@@@O@@@@@@@o@OOOOOO @@@@@@@ OOOOOOO OOOOOOO",
"o@@@@@@@O@@@@@@@O@@@@@@@O@@@@@@@o@OOOOOO @@@@@@@oOOOOOOOoOOOOOOO",
"o@@@@@@@O@@@@@@@O@@@@@@@O@@@@@@@o@OOOOOO @@@@@@@oOOOOOOOoOOOOOOO",
"o@@@@@@@O@@@@@@@O@@@@@@@O@@@@@@@ @OOOOOO @@@@@@@oOOOOOOOoOOOOOOO",
"o@@@@@@@O@@@@@@@O@@@@@@@O@@@@@@@ @OOOOOO @@@@@@@o@@@@@@@oOOOOOOO",
"ooOOOOOOOOOOOOOOOOOOOOOOOOOOOOOo ooooo   OOOOOoooooooooooooooooo",
"o@@@@@@@O@@@@@@@O@@@@@@@O@@@@@@@ OOOOOOO @@@@@@@o@@@@@@@OOOOOOOO",
"o@@@@@@@O@@@@@@@O@@@@@@@O@@@@@@@oOOOOOOO @@@@@@@O@@@@@@@O@@@@@@@",
"o@@@@@@@O@@@@@@@O@@@@@@@O@@@@@@@oOOOOOOO @@@@@@@O@@@@@@@O@@@@@@@",
" OOOOOOOoOOOOOOOoOOOOOOOoOOOOOOO ooooooo @@@@@@@O@@@@@@@O@@@@@@@",
" OOOOOOOoOOOOOOOoOOOOOOOoOOOOOOO ooooooo @@@@@@@O@@@@@@@O@@@@@@@",
" OOOOOOOoOOOOOOOoOOOOOOOoOOOOOOO ooooooo @@@@@@@O@@@@@@@O@@@@@@@",
"  ooooooooooooooooooooooooooooo          @@@@@@@O@@@@@@@O@@@@@@@",
"         OOOOOoooooooooooOOOOOOOOOOOOOOOOooooooooooooooooOOOOOOO",
" ooooooo @@@@@@@oOOOOOOOo%%%%%%%O%%%%%%%OooooooooOOOOOOOo@@@@@@@",
" ooooooo @@@@@@@oOOOOOOOo%%%%%%%@%%%%%%%OoOOOOOOoOOOOOOOo@@o.o@@",
" OOOOOOO @@@@@@@oOOOOOOOo%%%%%%%@%%%%%%%OoOOOOOOoOOOOOOOo@o...o@",
"oOOOOOOOo@@@@@@@oOOOOOOOo%%%%%%%@%%%%%%%OoOOOOOOoOOOOOOOo@.....@",
"oOOOOOOOo@@@@@@@oOOOOOOOo%%%%%%%@%%%%%%%OoOOOOOOoOOOOOOOo@o...o@",
"oOOOOOOOo@@@@@@@oOOOOOOOo%%%%%%%@%%%%%%%OoOOOOOOoOOOOOOOo@@o.o@@",
"o@@@@@@@o@@@@@@@o@@@@@@@o%%%%%%%@%%%%%%%OoOOOOOOoOOOOOOOo@@@@@@@",
"    oooooOOOOooooooooooooO@@@@@@@@@@@@@OOooooooooooooooooOOOOOoo",
" OOOOOOOo@@@@@@@o@@@@@@@o%%%%%%%@%%%%%%%OOOOOOOOoOOOOOOOo@@@@@@@",
" OOOOOOOo@@@@@@@o@@@@@@@o%%%%%%%@%@@@@@@OOOOOOOOoOOOOOOOo@@o.o@@",
" OOOOOOOo@@@@@@@o@@@@@@@O%%%%%%%@%@@@@@@OOOOOOOOoOOOOOOOo@o...o@",
"oOOOOOOOo@@@@@@@o@@@@@@@O%%%%%%%@%@@@@@@OOOOOOOOoOOOOOOOo@.....@",
"oOOOOOOOo@@@@@@@o@@@@@@@O%%%%%%%@%@@@@@@OOOOOOOOoOOOOOOOo@o...o@",
"oOOOOOOOo@@@@@@@O@@@@@@@O%%%%%%%@%@@@@@@OOOOOOOOoOOOOOOOo@@o.o@@",
"oOOOOOOOo@@@@@@@O@@@@@@@O%%%%%%%O%@@@@@@OOOOOOOOoOOOOOOOo@@@@@@@",
".........       .ooooooo.ooooooo.       .ooooooo ooooooo $#$$$$$",
".........       .ooooooo.ooooooo.       .ooooooo ooooooo #......",
".........       .ooooooo.ooooooo.       .ooooooo ooooooo $..XXX.",
".........................................OOOOOOOoOOOOOOOo$..X++.",
"..........XXX.XXX.....XXX.XXX.XXX.....XXXOOOOOOOoOOOOOOOo*&*X++X",
"..........+++.+++.XXX.+++.+++.+++.XXX.+++OOOOOOOoOOOOOOOo*&*X++X"
};
